<svg xmlns="http://www.w3.org/2000/svg" viewBox="0 0 56 56" width="56" height="56">
  <defs>
    <linearGradient id="g" x1="0%" y1="0%" x2="100%" y2="100%">
      <stop offset="0%" stop-color="#302846"/>
      <stop offset="100%" stop-color="#6D5A8A"/>
    </linearGradient>
  </defs>
  <circle cx="28" cy="28" r="28" fill="url(#g)"/>
  <g fill="#fff" opacity="0.85">
    <rect x="14" y="14" width="8" height="8" rx="1.5"/>
    <rect x="24" y="14" width="8" height="8" rx="1.5"/>
    <rect x="34" y="14" width="8" height="8" rx="1.5"/>
    <rect x="14" y="24" width="8" height="8" rx="1.5"/>
    <rect x="24" y="24" width="8" height="8" rx="1.5"/>
    <rect x="34" y="24" width="8" height="8" rx="1.5"/>
    <rect x="14" y="34" width="8" height="8" rx="1.5"/>
    <rect x="24" y="34" width="8" height="8" rx="1.5"/>
    <rect x="34" y="34" width="8" height="8" rx="1.5"/>
  </g>
  <path d="M18 18 L28 28 L38 18 M18 28 L28 38 L38 28" stroke="#fff" stroke-width="1.5" fill="none" stroke-linecap="round" opacity="0.5"/>
</svg>
